<svg xmlns="http://www.w3.org/2000/svg" width="65.671" height="65.671" viewBox="0 0 65.671 65.671"><defs><style>.a{fill:#fa6332;}</style></defs><path class="a" d="M64.272,33.941l-5.531-5.532,2.1-2.1-4.38-4.38A16.831,16.831,0,1,0,26.7,26.564L5.546,51.169a3.718,3.718,0,0,0-.238,4.548L0,61.026l4.644,4.644,5.308-5.308a3.72,3.72,0,0,0,4.549-.238l28.494-24.5,1.632,1.632,2.63-2.63,2.63,2.63,2.1-2.1,5.531,5.532a4.772,4.772,0,1,0,6.749-6.749ZM50.834,6.419a14.728,14.728,0,0,1,0,20.831,14.8,14.8,0,0,1-2.051,1.7l2.332-6.065-1.306-1.305A10.522,10.522,0,0,0,33.759,8.689L30.781,5.711a14.7,14.7,0,0,1,20.053.708ZM48.22,19.992l-5.438-5.438-2.28.876L35.261,10.19a8.413,8.413,0,0,1,12.96,9.8Zm-5.959-2.982,6.4,6.4-1.8,4.69-9.285-9.285ZM29.294,7.2l9.062,9.061-2.411.927-1.839-1.838-5.7,5.7,1.632,1.632-1.934,2.25A14.7,14.7,0,0,1,29.294,7.2ZM2.976,61.026l3.773-3.773,1.669,1.669L4.644,62.7Zm10.153-2.5a1.676,1.676,0,0,1-2.214-.082L7.224,54.754a1.631,1.631,0,0,1-.082-2.214L31.534,24.169,41.5,34.138ZM31.385,21.044l2.721-2.721L47.348,31.565l-2.721,2.721Zm17.361,12.1,1.578-1.578-.663-.663a16.682,16.682,0,0,0,5.954-6.853L57.87,26.3l-7.982,7.982ZM60.9,39.983a2.653,2.653,0,0,1-1.887-.781L53.48,33.67,57.253,29.9l5.531,5.532A2.667,2.667,0,0,1,60.9,39.983Zm0,0"/><path class="a" d="M112.535,273.307l3.451,3.45L129.2,265.95l-5.852-5.852Zm13.53-7.514-9.937,8.131-.757-.758,8.13-9.937Zm0,0" transform="translate(-97.734 -225.889)"/><path class="a" d="M219.313,235.157A3.157,3.157,0,1,0,222.469,232,3.16,3.16,0,0,0,219.313,235.157Zm4.209,0a1.052,1.052,0,1,1-1.052-1.052A1.054,1.054,0,0,1,223.521,235.157Zm0,0" transform="translate(-190.468 -201.487)"/></svg>