<svg xmlns="http://www.w3.org/2000/svg" width="47.589" height="29.835" viewBox="0 0 47.589 29.835"><defs><style>.a{fill:#19ce10;}</style></defs><g transform="translate(-14.45 -16.55)"><g transform="translate(14.45 16.55)"><path class="a" d="M31.472,46.385a10.524,10.524,0,0,1-6.589-2.563L15,33.938a1.812,1.812,0,1,1,2.563-2.562l9.884,9.884a5.505,5.505,0,0,0,4.027,1.464h0A7.676,7.676,0,0,0,35.5,41.26L58.928,17.1a1.812,1.812,0,0,1,2.563,2.563L38.062,43.822a9.759,9.759,0,0,1-6.589,2.563Z" transform="translate(-14.45 -16.55)"/></g></g></svg>