<svg xmlns="http://www.w3.org/2000/svg" width="17.5" height="16.5" viewBox="0 0 17.5 16.5"><defs><style>.a{fill:rgba(0,0,0,0);stroke-linecap:round;stroke-linejoin:round;stroke-miterlimit:10;}.a,.b{stroke:#fa6332;stroke-width:0.5px;}.b{fill:#fa6332;}</style></defs><g transform="translate(-11.25 -11.75)"><path class="a" d="M17.5,16"/><path class="b" d="M16.2,26.1H13.7a.5.5,0,0,1,0-1h2.5a.5.5,0,0,1,0,1Z"/><path class="b" d="M17.9,28H12a.5.5,0,0,1,0-1h5.9a.472.472,0,0,1,.5.5A.536.536,0,0,1,17.9,28Z"/><path class="b" d="M15.5,25.6V20.2a6.978,6.978,0,0,1,2.8-.7,6.293,6.293,0,0,1,3,.8,8.549,8.549,0,0,0,3.5.9,7.977,7.977,0,0,0,3.5-.9c.1-.1.2-.2.2-.3a.6.6,0,0,0-.1-.4l-1.7-2.4,1.7-3.6a.523.523,0,0,0-.7-.7,6.025,6.025,0,0,1-6,0,8.549,8.549,0,0,0-3.5-.9,7.977,7.977,0,0,0-3.5.9.758.758,0,0,0-.2.4V25.5h1Zm9.2-5.4a6.293,6.293,0,0,1-3-.8,8.549,8.549,0,0,0-3.5-.9,7.265,7.265,0,0,0-2.8.6V13.7a6.978,6.978,0,0,1,2.8-.7,6.293,6.293,0,0,1,3,.8,8.549,8.549,0,0,0,3.5.9,6.652,6.652,0,0,0,2.2-.4L25.7,17a.446.446,0,0,0,0,.5l1.5,2.2A6.787,6.787,0,0,1,24.7,20.2Z"/></g></svg>