<svg xmlns="http://www.w3.org/2000/svg" width="69.806" height="53.038" viewBox="0 0 69.806 53.038"><defs><style>.a{fill:#4cb4ff;stroke:#4cb4ff;}</style></defs><g transform="translate(-9.929 -12.281)"><g transform="translate(10.55 12.814)"><g transform="translate(0 19.289)"><g transform="translate(46.633)"><path class="a" d="M34.837,30.983a1.328,1.328,0,0,1-1.084-.361l-9.76-8.676a1.789,1.789,0,1,1,2.53-2.531l8.314,7.591,7.591-8.314a1.789,1.789,0,0,1,2.53,2.531l-8.676,9.76c-.723-.362-1.085,0-1.446,0Z" transform="translate(-23.45 -18.15)"/></g><g transform="translate(0 0.542)"><path class="a" d="M12.177,31.675a1.328,1.328,0,0,1-1.085-.362,1.747,1.747,0,0,1,0-2.53l8.676-9.76c.361-.361.723-.723,1.084-.723a2.173,2.173,0,0,1,1.446.362l9.76,8.676a1.789,1.789,0,0,1-2.53,2.53l-8.314-7.591-7.591,8.314A1.349,1.349,0,0,1,12.177,31.675Z" transform="translate(-10.55 -18.3)"/></g></g><g transform="translate(8.185)"><g transform="translate(9.676)"><path class="a" d="M55.65,44.213h0a2.024,2.024,0,0,1-1.808-2.169,24.425,24.425,0,0,0-3.976-16.629,21.755,21.755,0,0,0-14.821-8.676,24.425,24.425,0,0,0-16.629,3.976c-.723.723-1.807.361-2.53-.361s-.362-1.807.361-2.53a25.648,25.648,0,0,1,19.159-4.7A26.013,26.013,0,0,1,52.4,23.246a25.648,25.648,0,0,1,4.7,19.159A1.455,1.455,0,0,1,55.65,44.213Z" transform="translate(-15.491 -12.814)"/></g><g transform="translate(0 20.821)"><path class="a" d="M38.791,49.757a14.828,14.828,0,0,1-3.976-.362,26.013,26.013,0,0,1-16.99-10.122,25.648,25.648,0,0,1-4.7-19.159,1.593,1.593,0,0,1,2.169-1.446,1.593,1.593,0,0,1,1.446,2.169,24.425,24.425,0,0,0,3.976,16.629,21.755,21.755,0,0,0,14.821,8.676,24.425,24.425,0,0,0,16.629-3.976c.723-.723,1.807-.361,2.53.362s.362,1.807-.362,2.531A30.081,30.081,0,0,1,38.791,49.757Z" transform="translate(-12.814 -18.574)"/></g></g></g></g></svg>