<svg xmlns="http://www.w3.org/2000/svg" width="48.244" height="56" viewBox="0 0 48.244 56"><defs><style>.a{fill:#ffb237;}</style></defs><g transform="translate(-0.5)"><path class="a" d="M48.744,44.381c0-6.014-6.85-10.731-12.721-10.955l-3-2.691A14.269,14.269,0,0,0,38.891,19.25V12.031A12.064,12.064,0,0,0,26.821,0H22.446A11.992,11.992,0,0,0,10.453,12.031V19.25a14.294,14.294,0,0,0,5.786,11.465l-3.018,2.712C7.362,33.649.5,38.354.5,44.381V54.906A1.094,1.094,0,0,0,1.594,56H47.65a1.094,1.094,0,0,0,1.094-1.094ZM22.2,48.781h4.839l1.147,5.031H21.019Zm4.933-2.187h-5l-.839-2.614,3.332-1.666,3.4,1.7Zm-2.51-7.567-3.8-6.08a14.214,14.214,0,0,0,7.6.009Zm1.565,1.624,5.251-8.4,2.832,2.545-3.6,8.1ZM22.446,2.187h4.375A9.874,9.874,0,0,1,36.7,12.031v.9L34.649,9.978a1.094,1.094,0,0,0-1.68-.141,10.789,10.789,0,0,1-8.346,3.288,10.8,10.8,0,0,1-8.348-3.288,1.094,1.094,0,0,0-1.685.148l-1.949,2.856v-.81A9.835,9.835,0,0,1,22.446,2.187ZM12.641,19.25V16.722l3.038-4.451a13.1,13.1,0,0,0,8.944,3.042,13.1,13.1,0,0,0,8.951-3.048l3.13,4.507V19.25a12.031,12.031,0,1,1-24.062,0Zm5.165,13,5.252,8.4-4.481,2.24-3.6-8.1ZM2.687,44.381c0-4.506,5.477-8.4,10.264-8.75l4.092,9.195a1.094,1.094,0,0,0,1.489.534l.779-.39.887,2.763-1.426,6.08H2.687Zm43.869,9.431H30.429l-1.382-6.063L30,45l.713.357a1.094,1.094,0,0,0,1.489-.534l4.092-9.195c4.786.354,10.264,4.244,10.264,8.75Zm0,0"/><path class="a" d="M306.52,446h-4.375a1.094,1.094,0,0,0,0,2.188h4.375a1.094,1.094,0,0,0,0-2.187Zm0,0" transform="translate(-267.678 -397.219)"/><path class="a" d="M381.594,446a1.094,1.094,0,1,1-1.094,1.094A1.094,1.094,0,0,1,381.594,446Zm0,0" transform="translate(-338.438 -397.219)"/></g></svg>