<svg xmlns="http://www.w3.org/2000/svg" width="63.98" height="45.853" viewBox="0 0 63.98 45.853"><defs><style>.a{fill:#4cb4ff;}</style></defs><g transform="translate(0 -72.533)"><g transform="translate(8.531 105.59)"><path class="a" d="M74.665,337.067a6.4,6.4,0,1,0,6.4,6.4A6.4,6.4,0,0,0,74.665,337.067Zm0,10.663a4.265,4.265,0,1,1,4.265-4.265A4.27,4.27,0,0,1,74.665,347.73Z" transform="translate(-68.267 -337.067)"/></g><g transform="translate(44.786 105.59)"><path class="a" d="M364.8,337.067a6.4,6.4,0,1,0,6.4,6.4A6.4,6.4,0,0,0,364.8,337.067Zm0,10.663a4.265,4.265,0,1,1,4.265-4.265A4.27,4.27,0,0,1,364.8,347.73Z" transform="translate(-358.4 -337.067)"/></g><g transform="translate(40.521 84.263)"><path class="a" d="M347.557,181.818l-9.6-14.929a1.066,1.066,0,0,0-.9-.489h-11.73a1.066,1.066,0,0,0-1.066,1.066v26.659a1.065,1.065,0,0,0,1.066,1.066H329.6v-2.133h-3.2V168.533h10.081l9.113,14.176v10.35h-5.332v2.133h6.4a1.065,1.065,0,0,0,1.066-1.066V182.4A1.063,1.063,0,0,0,347.557,181.818Z" transform="translate(-324.267 -166.4)"/></g><g transform="translate(44.787 88.528)"><g transform="translate(0 0)"><path class="a" d="M360.534,210.13v-7.464h8.531v-2.133h-9.6A1.066,1.066,0,0,0,358.4,201.6v9.6a1.065,1.065,0,0,0,1.066,1.066h16V210.13H360.534Z" transform="translate(-358.401 -200.533)"/></g></g><g transform="translate(0 76.798)"><g transform="translate(0 0)"><path class="a" d="M41.587,106.667H1.066A1.067,1.067,0,0,0,0,107.733v34.123a1.066,1.066,0,0,0,1.066,1.066H9.6V140.79H2.133V108.8H40.521v31.99H20.26v2.133H41.587a1.065,1.065,0,0,0,1.066-1.066V107.733A1.066,1.066,0,0,0,41.587,106.667Z" transform="translate(0 -106.667)"/></g></g><g transform="translate(1.066 106.656)"><g transform="translate(0 0)"><rect class="a" width="6.398" height="2.133"/></g></g><g transform="translate(22.393 106.656)"><g transform="translate(0 0)"><rect class="a" width="18.128" height="2.133"/></g></g><g transform="translate(58.649 106.656)"><g transform="translate(0 0)"><rect class="a" width="4.265" height="2.133"/></g></g><g transform="translate(4.265 81.064)"><rect class="a" width="37.322" height="2.133"/></g><g transform="translate(13.862 110.921)"><rect class="a" width="2.133" height="2.133"/></g><g transform="translate(50.118 110.921)"><rect class="a" width="2.133" height="2.133"/></g><g transform="translate(4.265 72.533)"><rect class="a" width="14.929" height="2.133"/></g><g transform="translate(0 72.533)"><rect class="a" width="2.133" height="2.133"/></g></g></svg>