<svg xmlns="http://www.w3.org/2000/svg" width="56" height="56" viewBox="0 0 56 56"><defs><style>.a{fill:#19ce10;}</style></defs><g transform="translate(5.6 0)"><g transform="translate(0 0)"><path class="a" d="M92.531,10.535,87.865,5.869a.933.933,0,0,0-1.171-.121l-5.186,3.4L75.916,6.813,75.058.8a.933.933,0,0,0-.924-.8H66.668a.933.933,0,0,0-.924.8l-.859,6.013L59.3,9.147l-5.187-3.4a.933.933,0,0,0-1.171.121l-4.667,4.667a.933.933,0,0,0-.119,1.173l3.453,5.245-.579,1.337,1.714.741.779-1.8a.933.933,0,0,0-.077-.885L50.13,11.319l3.592-3.592,4.967,3.254a.944.944,0,0,0,.873.08L66.1,8.325a.933.933,0,0,0,.56-.729l.821-5.73h5.848L74.144,7.6a.933.933,0,0,0,.56.729l6.533,2.734a.942.942,0,0,0,.872-.08L87.078,7.73,90.7,11.347l-2.427,4.107a.933.933,0,0,0-.071.8l1.035,2.734,1.746-.661L90.1,16.018l2.571-4.347A.933.933,0,0,0,92.531,10.535Z" transform="translate(-48.001 0)"/></g></g><g transform="translate(17.733 32.667)"><path class="a" d="M172.26,283.073l-2.8-2.8a.933.933,0,0,0-.66-.273H155.733a.933.933,0,0,0-.66.273l-2.8,2.8a.933.933,0,0,0-.273.66V302.4a.933.933,0,0,0,.933.933H171.6a.933.933,0,0,0,.933-.933V283.733A.933.933,0,0,0,172.26,283.073Zm-6.807-1.207h2.961l-3.347,3.347-1.48-1.48Zm-1.706,4.667-1.207,1.207a.928.928,0,0,0-.273.66.933.933,0,0,0-.273-.653l-1.207-1.213,1.48-1.48Zm-.933-4.667-.547.547-.547-.547Zm-3.733,0,1.867,1.867-1.48,1.48-3.347-3.347Zm-.43,19.6h-4.783V284.12l.933-.933,4.007,4.007,1.54,1.54Zm1.883,0,1.725-12.943a.84.84,0,0,0,.008-.118.888.888,0,0,0,.019.178l2.576,12.884Zm10.133,0h-3.9l-2.552-12.76,1.513-1.514,4.007-4.007.933.933Z" transform="translate(-152 -280)"/></g><g transform="translate(20.533 12.133)"><path class="a" d="M190,104h-8.4a5.605,5.605,0,0,0-5.6,5.6v5.6a7.467,7.467,0,1,0,14.933,0V104.933A.933.933,0,0,0,190,104Zm-.933,11.2a5.6,5.6,0,0,1-11.2,0v-3.733h7.467a5.571,5.571,0,0,0,3.733-1.437Zm-3.733-5.6h-7.467a3.733,3.733,0,0,1,3.733-3.733h7.467A3.733,3.733,0,0,1,185.333,109.6Z" transform="translate(-176 -104)"/></g><g transform="translate(41.067 36.4)"><path class="a" d="M366.66,315.073l-2.8-2.8a.933.933,0,0,0-.66-.273h-7.467a.933.933,0,0,0-.66.273l-2.8,2.8a.933.933,0,0,0-.273.66v14.933a.933.933,0,0,0,.933.933H366a.933.933,0,0,0,.933-.933V315.733A.933.933,0,0,0,366.66,315.073Zm-1.593,14.66H360.4v-14h-1.867v14h-4.667V316.12l1.867-1.867,2.14,2.14.66-.66.66-.66-1.207-1.207h3.034l-1.261,1.186.64.68.64.68,2.225-2.1,1.8,1.8Z" transform="translate(-352 -312)"/></g><g transform="translate(42.949 20.533)"><path class="a" d="M374.653,176h-1.836a4.676,4.676,0,0,0-4.667,4.651l-.015,4.673a5.591,5.591,0,0,0,5.572,5.609h.019a5.6,5.6,0,0,0,5.593-5.591v-4.676A4.672,4.672,0,0,0,374.653,176Zm-4.636,4.657a2.8,2.8,0,0,1,2.769-2.791,2.8,2.8,0,0,1-2.769,2.8Zm7.436,4.683a3.724,3.724,0,1,1-7.448,0v-.009l.009-2.8a4.666,4.666,0,0,0,3.705-1.867,4.667,4.667,0,0,0,3.733,1.867Zm-2.8-7.473a2.8,2.8,0,0,1,2.8,2.8A2.8,2.8,0,0,1,374.653,177.867Z" transform="translate(-368.136 -176)"/></g><g transform="translate(0 36.4)"><path class="a" d="M14.66,315.073l-2.8-2.8A.933.933,0,0,0,11.2,312H3.733a.933.933,0,0,0-.66.273l-2.8,2.8a.933.933,0,0,0-.273.66v14.933a.933.933,0,0,0,.933.933H14a.933.933,0,0,0,.933-.933V315.733A.933.933,0,0,0,14.66,315.073Zm-1.593,14.66H8.4v-14H6.533v14H1.867V316.12l1.867-1.867,2.14,2.14.66-.66.66-.66-1.207-1.207H9.021L7.76,315.053l.64.68.64.68,2.225-2.1,1.8,1.8Z" transform="translate(0 -312)"/></g><g transform="translate(1.883 20.533)"><path class="a" d="M22.653,176H20.817a4.676,4.676,0,0,0-4.667,4.651l-.015,4.673a5.591,5.591,0,0,0,5.572,5.609h.019a5.6,5.6,0,0,0,5.593-5.591v-4.676A4.672,4.672,0,0,0,22.653,176Zm0,1.867a2.8,2.8,0,0,1,2.628,1.867H23.587a2.8,2.8,0,0,1-2.628-1.867Zm-3.733.754v.171a.92.92,0,0,1-.275.661.888.888,0,0,1-.44.233A2.8,2.8,0,0,1,18.92,178.621Zm6.533,6.722a3.724,3.724,0,1,1-7.448,0v-.009l.012-3.741a2.775,2.775,0,0,0,1.947-.813,2.844,2.844,0,0,0,.389-.493,4.645,4.645,0,0,0,3.233,1.313h1.867Z" transform="translate(-16.136 -176)"/></g></svg>