<svg xmlns="http://www.w3.org/2000/svg" width="18" height="18" viewBox="0 0 18 18"><defs><style>.a{fill:#fa6332;stroke:#fa6332;}</style></defs><g transform="translate(-11 -11)"><path class="a" d="M20,26.5A6.5,6.5,0,1,1,26.5,20,6.487,6.487,0,0,1,20,26.5Zm0-12A5.5,5.5,0,1,0,25.5,20,5.549,5.549,0,0,0,20,14.5Z"/><path class="a" d="M20,16.5a.472.472,0,0,1-.5-.5V12a.5.5,0,0,1,1,0v4A.472.472,0,0,1,20,16.5Z"/><path class="a" d="M20,28.5a.472.472,0,0,1-.5-.5V24a.5.5,0,0,1,1,0v4A.472.472,0,0,1,20,28.5Z"/><path class="a" d="M28,20.5H24a.5.5,0,0,1,0-1h4a.5.5,0,0,1,0,1Z"/><path class="a" d="M16,20.5H12a.5.5,0,0,1,0-1h4a.5.5,0,0,1,0,1Z"/></g></svg>