<svg xmlns="http://www.w3.org/2000/svg" width="18.124" height="20.54" viewBox="0 0 18.124 20.54"><defs><style>.a{fill:#231815;}</style></defs><g transform="translate(-12.5 -11.5)"><g transform="translate(12.5 11.5)"><g transform="translate(0 3.625)"><path class="a" d="M30.02,19.333H13.1a.571.571,0,0,1-.6-.6V16.312A1.858,1.858,0,0,1,14.312,14.5h14.5a1.858,1.858,0,0,1,1.812,1.812v2.416A.647.647,0,0,1,30.02,19.333ZM13.708,18.125H29.415V16.312a.571.571,0,0,0-.6-.6h-14.5a.571.571,0,0,0-.6.6Z" transform="translate(-12.5 -14.5)"/></g><g transform="translate(1.208 7.249)"><path class="a" d="M26.187,30.791H16.521A2.991,2.991,0,0,1,13.5,27.77V18.1a.6.6,0,0,1,1.208,0V27.77a1.858,1.858,0,0,0,1.812,1.812h9.666A1.858,1.858,0,0,0,28,27.77V18.1a.6.6,0,0,1,1.208,0V27.77A2.991,2.991,0,0,1,26.187,30.791Z" transform="translate(-13.5 -17.5)"/></g><g transform="translate(6.041)"><path class="a" d="M23.541,15.729H22.333V13.312a.571.571,0,0,0-.6-.6H19.312a.571.571,0,0,0-.6.6v2.416H17.5V13.312A1.858,1.858,0,0,1,19.312,11.5h2.416a1.858,1.858,0,0,1,1.812,1.812Z" transform="translate(-17.5 -11.5)"/></g><g transform="translate(4.833 10.874)"><path class="a" d="M17.1,26.541a.571.571,0,0,1-.6-.6V21.1a.6.6,0,0,1,1.208,0v4.833A.571.571,0,0,1,17.1,26.541Z" transform="translate(-16.5 -20.5)"/></g><g transform="translate(8.458 10.874)"><path class="a" d="M20.1,26.541a.571.571,0,0,1-.6-.6V21.1a.6.6,0,1,1,1.208,0v4.833A.571.571,0,0,1,20.1,26.541Z" transform="translate(-19.5 -20.5)"/></g><g transform="translate(12.082 10.874)"><path class="a" d="M23.1,26.541a.571.571,0,0,1-.6-.6V21.1a.6.6,0,0,1,1.208,0v4.833A.571.571,0,0,1,23.1,26.541Z" transform="translate(-22.5 -20.5)"/></g></g></g></svg>