<svg xmlns="http://www.w3.org/2000/svg" width="20.407" height="20.54" viewBox="0 0 20.407 20.54"><defs><style>.a{fill:#231815;}</style></defs><g transform="translate(-12 -12.6)"><g transform="translate(12 12.6)"><g transform="translate(12.537)"><path class="a" d="M26.335,20.6a.8.8,0,0,1-.534-.133L21.533,16.2c-.133-.133-.133-.267-.133-.534s.133-.4.133-.534L23.267,13.4A2.578,2.578,0,0,1,27,13.4l1.467,1.467a2.578,2.578,0,0,1,0,3.735l-1.734,1.734C26.735,20.6,26.468,20.6,26.335,20.6ZM23,15.668,26.335,19l1.334-1.334a1.289,1.289,0,0,0,0-1.867L26.2,14.334a1.289,1.289,0,0,0-1.867,0Z" transform="translate(-21.4 -12.6)"/></g><g transform="translate(0 2.334)"><path class="a" d="M12.667,32.556c-.133,0-.4-.133-.534-.133A1.2,1.2,0,0,1,12,31.756l.8-5.068c0-.133.133-.267.133-.4L24.671,14.55a.645.645,0,0,1,.934,0l4.268,4.268c.133.133.133.267.133.534s-.133.4-.133.534L18.135,31.622a.49.49,0,0,1-.4.133l-5.068.8Zm1.467-5.468-.667,4,4-.667,11.07-11.07L25.2,16.017Z" transform="translate(-12 -14.35)"/></g><g transform="translate(1.934 13.004)"><path class="a" d="M18.452,27.885a.8.8,0,0,1-.534-.133L13.65,23.484a.66.66,0,1,1,.934-.934l4.268,4.268a.645.645,0,0,1,0,.934A.584.584,0,0,1,18.452,27.885Z" transform="translate(-13.45 -22.35)"/></g></g></g></svg>