<svg xmlns="http://www.w3.org/2000/svg" width="63.947" height="59.574" viewBox="0 0 63.947 59.574"><defs><style>.a{fill:#4cb4ff;stroke:#4cb4ff;stroke-width:0.5px;}</style></defs><g transform="translate(0.25 -12.194)"><path class="a" d="M54.656,30.026a8.79,8.79,0,0,0,8.789-8.618,8.638,8.638,0,0,0-2.513-6.252A9.073,9.073,0,0,0,54.5,12.444H26.682a3.058,3.058,0,0,0-2.607,1.465l-8.029.512a.7.7,0,0,0-.658.7v.866H8.8a5.26,5.26,0,0,0-5.2,4.55H.7a.7.7,0,1,0,0,1.406H3.592A5.26,5.26,0,0,0,8.8,26.5h6.591v.866a.7.7,0,0,0,.658.7l8.038.513a3.058,3.058,0,0,0,2.6,1.45h1.127V34.38a.7.7,0,0,0,.7.7h4.207v1.026a.7.7,0,0,0,.7.7h2.228a2.85,2.85,0,0,1,2.856,2.619L39.5,50.845l-8.84,2.642a4.487,4.487,0,0,0-3.172,4.645l1.049,12.74a.7.7,0,0,0,.7.645H54.058a.7.7,0,0,0,.7-.7V57.231a7.4,7.4,0,0,0-2.177-5.261l-.98-.981V33.08A3.056,3.056,0,0,1,54.656,30.026ZM23.621,20.532H16.794V18.327h6.827Zm-6.827,1.406h6.827v2.205H16.794Zm6.827-6.591v1.574H16.794V15.783ZM4.95,21.242a3.853,3.853,0,0,1,3.144-3.781v7.563A3.852,3.852,0,0,1,4.95,21.242Zm10.294,3.847H9.5V17.4h5.744v7.694Zm8.378,2.048L16.794,26.7V25.549h6.827Zm5.594,6.54V30.026h3.5v3.651Zm6.435,1.729H34.124V29.323a.7.7,0,0,0-.7-.7h-6.74a1.657,1.657,0,0,1-1.655-1.655V15.5a1.657,1.657,0,0,1,1.655-1.655H54.5a7.66,7.66,0,0,1,5.432,2.29,7.243,7.243,0,0,1,2.111,5.241,7.422,7.422,0,0,1-7.384,7.239A4.464,4.464,0,0,0,50.2,33.08V47.253H40.6l-.69-7.945A4.248,4.248,0,0,0,35.649,35.406Zm5.235,15.17-.166-1.916H50.2v1.916Zm-.98,8.364A2.338,2.338,0,0,1,42.24,56.6H44.4a2.339,2.339,0,0,1,2.336,2.336v3.972H39.9Zm-.7,5.378h8.233a.7.7,0,0,0,.7-.7V59.349h5.218v8.507H29.7L29,59.349h9.5v4.266A.7.7,0,0,0,39.2,64.317Zm-9.319,5.794-.07-.85H53.355v.85ZM53.355,57.231v.712H48A3.746,3.746,0,0,0,44.4,55.2H42.24a3.745,3.745,0,0,0-3.6,2.745s-9.733,0-9.754.006a3.073,3.073,0,0,1,2.176-3.115L40.6,51.982h10l.98.982A6,6,0,0,1,53.355,57.231Z"/><path class="a" d="M226.425,46.12a4.242,4.242,0,1,0,0-8.484H213.419a4.242,4.242,0,0,0,0,8.484Zm2.836-4.242a2.839,2.839,0,0,1-2.836,2.836h-2.4V39.042h2.4A2.839,2.839,0,0,1,229.261,41.878Zm-15.842-2.836h9.2v2.133H210.675A2.838,2.838,0,0,1,213.419,39.042Zm-2.744,3.539h11.942v2.133h-9.2A2.838,2.838,0,0,1,210.675,42.581Z" transform="translate(-172.419 -20.765)"/><path class="a" d="M158.958,46.14a.7.7,0,0,0-.7.7v4.189a.7.7,0,0,0,1.406,0V46.843A.7.7,0,0,0,158.958,46.14Z" transform="translate(-130.445 -27.775)"/><path class="a" d="M172.109,46.14a.7.7,0,0,0-.7.7v4.189a.7.7,0,0,0,1.406,0V46.843A.7.7,0,0,0,172.109,46.14Z" transform="translate(-141.285 -27.775)"/><path class="a" d="M185.261,46.14a.7.7,0,0,0-.7.7v4.189a.7.7,0,1,0,1.406,0V46.843A.7.7,0,0,0,185.261,46.14Z" transform="translate(-152.126 -27.775)"/></g></svg>