<svg xmlns="http://www.w3.org/2000/svg" width="26.243" height="15.804" viewBox="0 0 26.243 15.804"><defs><style>.a{fill:#fa6332;}</style></defs><g transform="translate(0 0)"><path class="a" d="M24.071,30.4c-5.509,0-10.149-3.915-12.469-6.234a2.457,2.457,0,0,1,0-3.335c2.32-2.32,6.959-6.234,12.469-6.234S34.22,18.515,36.54,20.834a2.457,2.457,0,0,1,0,3.335C34.22,26.489,29.581,30.4,24.071,30.4Zm0-14.5c-5.22,0-9.714,4.06-11.454,5.8a.813.813,0,0,0,0,1.3c1.74,1.74,6.234,5.8,11.454,5.8s9.714-4.06,11.454-5.8a.813.813,0,0,0,0-1.3C33.785,19.964,29.291,15.9,24.071,15.9Z" transform="translate(-10.95 -14.6)"/></g><g transform="translate(9.497 4.205)"><path class="a" d="M21.125,24.749a3.625,3.625,0,1,1,3.625-3.625A3.589,3.589,0,0,1,21.125,24.749Zm0-5.8A2.175,2.175,0,1,0,23.3,21.125,2.23,2.23,0,0,0,21.125,18.95Z" transform="translate(-17.5 -17.5)"/></g></svg>