<svg xmlns="http://www.w3.org/2000/svg" width="53.147" height="58.997" viewBox="0 0 53.147 58.997"><defs><style>.a{fill:#19ce10;}</style></defs><g transform="translate(-25.386 0)"><g transform="translate(25.386 0)"><g transform="translate(0 0)"><path class="a" d="M77.957,3.364,75.169.576a1.969,1.969,0,0,0-2.784,0l-2.091,2.09a.994.994,0,0,0-.184.255L68.787,5.568,67.5,6.851a.983.983,0,0,0-1.68.693v.987l-2.5,2.5a.983.983,0,0,0-1.68.693v.987l-5.871,5.871L50.338,21.3l-.011.007c-.023.012-.046.025-.068.039l-.026.015a.967.967,0,0,0-.082.062l-.034.031c-.011.01-.023.02-.034.03L43.81,27.757h0L28.755,42.813A1.966,1.966,0,0,0,28.2,44.5c0,.022.008.044.012.066l-1.9,1.895A3.184,3.184,0,0,0,28.57,51.9H40.7l7.4,3.841,2.681,2.681a1.968,1.968,0,0,0,2.781,0l7.67-7.669a1.966,1.966,0,0,0,0-2.781l-2.094-2.094a1.969,1.969,0,0,0-2.781,0l-1.592,1.591L51.179,34.32l3.083-3.083,1.4,1.4-1.4,1.4a.983.983,0,1,0,1.39,1.39l0,0,0,0L61.235,41l0,0a.983.983,0,1,0,1.39,1.39l4.182-4.182a.983.983,0,0,0-1.39-1.39l0,0-5.578-5.578h0a.983.983,0,0,0-1.39-1.39l-1.4,1.4-1.4-1.4,1.4-1.4c.013-.013.025-.027.037-.041l.023-.025a.97.97,0,0,0,.064-.085l.012-.02c.015-.024.029-.048.042-.073l.007-.012,2.717-5.433,1.979-1.979,0,0a.983.983,0,0,0,1.679-.7V19.1l2.5-2.5,0,0a.983.983,0,0,0,1.679-.7v-.987l5.174-5.174,2.646-1.323a.977.977,0,0,0,.255-.184l2.091-2.09A1.973,1.973,0,0,0,77.957,3.364ZM64.023,38.21l-1.4,1.4-4.882-4.882,1.4-1.4ZM59.141,20.79l-1.4-1.4,3.9-3.9v2.795Zm-4.178,6.966L52.868,29.85l-4.185-4.185,2.094-2.094,4.074,4.073Zm-7.67-.7,4.185,4.185-1.4,1.4-4.185-4.186ZM28.57,49.933a1.218,1.218,0,0,1-.862-2.078l1.778-1.778,7.427,3.855H28.57Zm29.177-2.666,2.094,2.094-7.67,7.669-2.094-2.094.966-.966,3.915-3.914h0ZM48.5,53.733,30.145,44.2,44.5,29.843l4.7,4.7,3.963,14.53Zm7.583-27.638-3.017-3.016-.629-.629,3.721-1.861,1.785,1.785Zm7.525-12.568,2.215-2.215v2.795l-2.215,2.215Zm4.182-1.387v-2.8l1.8-1.8.628.628.77.77Zm6.8-5.4L72.577,7.742,70.792,5.956,71.8,3.945l1.981-1.978,2.788,2.791Z" transform="translate(-25.386 0)"/><path class="a" d="M173.631,330.9a1.968,1.968,0,0,0-1.886.514l-3,3a1.968,1.968,0,0,0,0,2.785l4.879,4.879a1.968,1.968,0,0,0,2.785,0h0l.287-.287a1.97,1.97,0,0,0,.5-1.932l-2.168-7.589A1.968,1.968,0,0,0,173.631,330.9Zm1.389,9.784-4.883-4.882,3-3,2.167,7.593Z" transform="translate(-151.718 -292.716)"/><path class="a" d="M160.288,313.663a.984.984,0,0,0,.7-1.678l-.7-.7a.983.983,0,0,0-1.391,1.39l.7.7a.98.98,0,0,0,.7.288Z" transform="translate(-143.26 -275.166)"/><path class="a" d="M183.756,289.155a.98.98,0,0,0,.7.288h0a.983.983,0,0,0,.7-1.678l-.7-.7a.983.983,0,1,0-1.39,1.39Z" transform="translate(-164.636 -253.734)"/><path class="a" d="M136.063,335.451a.983.983,0,0,0-1.39,1.391l.7.7a.98.98,0,0,0,.7.288h0a.983.983,0,0,0,.7-1.678Z" transform="translate(-121.824 -296.542)"/></g></g></g></svg>