<svg xmlns="http://www.w3.org/2000/svg" width="32.945" height="34.012" viewBox="0 0 32.945 34.012"><defs><style>.a{fill:#fff;}</style></defs><g transform="translate(-7.35)"><g transform="translate(7.35)"><path class="a" d="M39.424,0H8.221a.871.871,0,1,0,0,1.742H10.1V33.119a.874.874,0,0,0,.457.769.859.859,0,0,0,.893-.044l3.781-2.518,3.8,2.525a.866.866,0,0,0,.965,0l3.781-2.518,3.8,2.525a.866.866,0,0,0,.965,0l3.781-2.518,3.8,2.525a.882.882,0,0,0,.479.145.94.94,0,0,0,.414-.1.874.874,0,0,0,.457-.769L37.443,1.763h1.981a.873.873,0,0,0,.871-.871A.892.892,0,0,0,39.424,0Zm-3.7,31.494L32.8,29.549a.866.866,0,0,0-.965,0l-3.781,2.525-3.8-2.525a.866.866,0,0,0-.965,0l-3.781,2.518-3.8-2.518a.866.866,0,0,0-.965,0l-2.91,1.938V1.734H35.716Z" transform="translate(-7.35 0)"/><path class="a" d="M113.321,169.342h9.122a.871.871,0,1,0,0-1.742h-9.122a.871.871,0,0,0,0,1.742Z" transform="translate(-104.823 -155.438)"/><path class="a" d="M113.321,211.042h6.836a.871.871,0,0,0,0-1.742h-6.836a.871.871,0,0,0,0,1.742Z" transform="translate(-104.823 -194.112)"/><path class="a" d="M301.821,169.342H304.1a.871.871,0,0,0,0-1.742h-2.279a.871.871,0,1,0,0,1.742Z" transform="translate(-279.645 -155.438)"/><path class="a" d="M301.821,211.042H304.1a.871.871,0,0,0,0-1.742h-2.279a.871.871,0,1,0,0,1.742Z" transform="translate(-279.645 -194.112)"/><path class="a" d="M113.321,73.042h9.122a.871.871,0,1,0,0-1.742h-9.122a.871.871,0,0,0,0,1.742Z" transform="translate(-104.823 -66.126)"/><path class="a" d="M113.321,114.642h6.836a.871.871,0,1,0,0-1.742h-6.836a.871.871,0,1,0,0,1.742Z" transform="translate(-104.823 -104.707)"/><path class="a" d="M301.821,73.042H304.1a.871.871,0,1,0,0-1.742h-2.279a.871.871,0,1,0,0,1.742Z" transform="translate(-279.645 -66.126)"/><path class="a" d="M301.821,114.642H304.1a.871.871,0,1,0,0-1.742h-2.279a.871.871,0,1,0,0,1.742Z" transform="translate(-279.645 -104.707)"/><path class="a" d="M113.321,266.842h9.122a.871.871,0,1,0,0-1.742h-9.122a.871.871,0,0,0,0,1.742Z" transform="translate(-104.823 -245.863)"/><path class="a" d="M113.321,308.442h6.836a.871.871,0,0,0,0-1.742h-6.836a.871.871,0,0,0,0,1.742Z" transform="translate(-104.823 -284.444)"/><path class="a" d="M301.821,266.842H304.1a.871.871,0,0,0,0-1.742h-2.279a.871.871,0,1,0,0,1.742Z" transform="translate(-279.645 -245.863)"/><path class="a" d="M301.821,308.442H304.1a.871.871,0,0,0,0-1.742h-2.279a.871.871,0,1,0,0,1.742Z" transform="translate(-279.645 -284.444)"/></g></g></svg>