<svg xmlns="http://www.w3.org/2000/svg" width="24.542" height="24.542" viewBox="0 0 24.542 24.542"><defs><style>.a{fill:#fff;fill-rule:evenodd;}</style></defs><path class="a" d="M19.653,0a.719.719,0,0,1,.719.719v9.54A7.539,7.539,0,1,1,10.259,20.372H.719A.719.719,0,0,1,0,19.653V.719A.719.719,0,0,1,.719,0Zm-6.04,1.438V5.468a.718.718,0,0,1-1.09.616L10.186,4.9,7.8,6.108a.718.718,0,0,1-1.04-.64l0-4.029H1.438v17.5H9.716a7.541,7.541,0,0,1,9.218-9.218V1.438Zm1.1,18.742h3.355a2.8,2.8,0,0,0,0-5.608h-2l.422-.423a.717.717,0,0,0-1.017-1.011L13.829,14.79a.717.717,0,0,0,0,1.014l1.652,1.649A.717.717,0,0,0,16.5,16.436l-.427-.426h2a1.366,1.366,0,0,1,0,2.732H14.716a.719.719,0,1,0,0,1.438Zm-2.024-7.489a6.1,6.1,0,1,0,8.626,0A6.1,6.1,0,0,0,12.692,12.692ZM12.175,1.438H8.2V4.3l1.665-.846a.716.716,0,0,1,.648,0l1.666.847Zm0,0"/></svg>