<svg xmlns="http://www.w3.org/2000/svg" width="37.897" height="37.897" viewBox="0 0 37.897 37.897"><defs><style>.a{fill:#fff;}</style></defs><g transform="translate(0 -0.001)"><g transform="translate(0 0.001)"><path class="a" d="M35.957,14.971,33.3,14.52a15.02,15.02,0,0,0-1.069-2.581L33.8,9.746a2.334,2.334,0,0,0-.253-3.016L31.183,4.371a2.324,2.324,0,0,0-1.655-.689,2.3,2.3,0,0,0-1.354.435l-2.2,1.567a14.863,14.863,0,0,0-2.676-1.1l-.443-2.628A2.339,2.339,0,0,0,20.544,0H17.211A2.339,2.339,0,0,0,14.9,1.956L14.44,4.648a14.65,14.65,0,0,0-2.573,1.085L9.69,4.165a2.338,2.338,0,0,0-3.016.253L4.307,6.778a2.343,2.343,0,0,0-.253,3.016l1.583,2.225a14.671,14.671,0,0,0-1.053,2.589l-2.628.443A2.339,2.339,0,0,0,0,17.362v3.333a2.339,2.339,0,0,0,1.955,2.312l2.692.459a14.649,14.649,0,0,0,1.085,2.573l-1.56,2.169a2.334,2.334,0,0,0,.253,3.016l2.359,2.359a2.324,2.324,0,0,0,1.655.689,2.3,2.3,0,0,0,1.354-.435l2.225-1.583a14.976,14.976,0,0,0,2.5,1.029l.443,2.66A2.339,2.339,0,0,0,17.274,37.9h3.341a2.339,2.339,0,0,0,2.312-1.955l.451-2.66a15.02,15.02,0,0,0,2.581-1.069l2.193,1.567a2.324,2.324,0,0,0,1.362.435h0a2.324,2.324,0,0,0,1.655-.689l2.359-2.359a2.343,2.343,0,0,0,.253-3.016l-1.567-2.2a14.912,14.912,0,0,0,1.069-2.581l2.66-.443A2.339,2.339,0,0,0,37.9,20.616V17.283A2.31,2.31,0,0,0,35.957,14.971Zm-.182,5.645a.205.205,0,0,1-.174.206l-3.325.554a1.063,1.063,0,0,0-.855.784,12.673,12.673,0,0,1-1.377,3.317,1.07,1.07,0,0,0,.048,1.164L32.046,29.4a.216.216,0,0,1-.024.269l-2.359,2.359a.2.2,0,0,1-.15.063.194.194,0,0,1-.119-.04l-2.747-1.955a1.07,1.07,0,0,0-1.164-.047,12.673,12.673,0,0,1-3.317,1.377,1.051,1.051,0,0,0-.784.855L20.821,35.6a.205.205,0,0,1-.206.174H17.282a.205.205,0,0,1-.206-.174l-.554-3.325a1.063,1.063,0,0,0-.784-.855,13.159,13.159,0,0,1-3.246-1.33,1.1,1.1,0,0,0-.538-.142,1.043,1.043,0,0,0-.617.2L8.566,32.119a.236.236,0,0,1-.119.04.212.212,0,0,1-.15-.063L5.937,29.736a.215.215,0,0,1-.024-.269l1.947-2.731a1.084,1.084,0,0,0,.047-1.172,12.554,12.554,0,0,1-1.393-3.309,1.084,1.084,0,0,0-.855-.784L2.312,20.9a.205.205,0,0,1-.174-.206V17.362a.205.205,0,0,1,.174-.206l3.3-.554a1.07,1.07,0,0,0,.863-.792A12.66,12.66,0,0,1,7.83,12.485a1.057,1.057,0,0,0-.055-1.156L5.8,8.559a.216.216,0,0,1,.024-.269L8.186,5.931a.2.2,0,0,1,.15-.063.194.194,0,0,1,.119.04l2.731,1.947a1.084,1.084,0,0,0,1.172.047,12.554,12.554,0,0,1,3.309-1.393,1.084,1.084,0,0,0,.784-.855l.57-3.349a.205.205,0,0,1,.206-.174h3.333a.205.205,0,0,1,.206.174l.554,3.3a1.07,1.07,0,0,0,.792.863,12.85,12.85,0,0,1,3.4,1.393,1.07,1.07,0,0,0,1.164-.047L29.4,5.851a.236.236,0,0,1,.119-.04.212.212,0,0,1,.15.063l2.359,2.359a.215.215,0,0,1,.024.269L30.1,11.25a1.07,1.07,0,0,0-.048,1.164,12.673,12.673,0,0,1,1.377,3.317,1.051,1.051,0,0,0,.855.784l3.325.562a.205.205,0,0,1,.174.206v3.333Z" transform="translate(0 -0.001)"/><path class="a" d="M144.278,136a8.178,8.178,0,1,0,8.178,8.178A8.183,8.183,0,0,0,144.278,136Zm0,14.218a6.04,6.04,0,1,1,6.04-6.04A6.044,6.044,0,0,1,144.278,150.219Z" transform="translate(-125.326 -125.234)"/></g></g></svg>