<svg xmlns="http://www.w3.org/2000/svg" width="36.945" height="22.988" viewBox="0 0 36.945 22.988"><defs><style>.a{fill:#fff;}</style></defs><g transform="translate(-11 -14.9)"><g transform="translate(11 14.9)"><g transform="translate(9.852 2.052)"><g transform="translate(3.079)"><path class="a" d="M22.842,28.215c-3.079,0-5.542-2.668-5.542-6.157S19.763,15.9,22.842,15.9s5.542,2.668,5.542,6.157S25.92,28.215,22.842,28.215Zm0-10.262c-1.847,0-3.489,1.847-3.489,4.1s1.437,4.1,3.489,4.1,3.489-1.847,3.489-4.1S24.689,17.952,22.842,17.952Z" transform="translate(-17.3 -15.9)"/></g><g transform="translate(10.878 9.647)"><path class="a" d="M21.1,20.6h.41a5.957,5.957,0,0,1,5.952,5.952v4.31a1.026,1.026,0,0,1-2.052,0v-4.31a4.037,4.037,0,0,0-3.9-3.9H21.1Z" transform="translate(-21.1 -20.6)"/></g><g transform="translate(0 9.647)"><path class="a" d="M22.163,22.652h-.41a4.037,4.037,0,0,0-3.9,3.9v4.31a1.026,1.026,0,0,1-2.052,0v-4.31A5.957,5.957,0,0,1,21.752,20.6h.41Z" transform="translate(-15.8 -20.6)"/></g></g><g transform="translate(22.577)"><g transform="translate(2.463)"><path class="a" d="M27.921,25.162A5.009,5.009,0,0,1,23.2,20.031,4.875,4.875,0,0,1,27.921,14.9a4.875,4.875,0,0,1,4.721,5.131A5.009,5.009,0,0,1,27.921,25.162Zm0-8.21a2.96,2.96,0,0,0-2.668,3.079,2.96,2.96,0,0,0,2.668,3.079,2.96,2.96,0,0,0,2.668-3.079A2.96,2.96,0,0,0,27.921,16.952Z" transform="translate(-23.2 -14.9)"/></g><g transform="translate(9.031 7.799)"><path class="a" d="M26.4,18.7h.41a5,5,0,0,1,4.926,4.926v3.489a1.026,1.026,0,1,1-2.052,0V23.626a2.806,2.806,0,0,0-2.873-2.873H26.4Z" transform="translate(-26.4 -18.7)"/></g><g transform="translate(0 7.799)"><path class="a" d="M27.336,20.752h-.41a2.806,2.806,0,0,0-2.873,2.873,1.026,1.026,0,0,1-2.052,0A5,5,0,0,1,26.926,18.7h.41Z" transform="translate(-22 -18.7)"/></g></g><g transform="translate(2.463)"><path class="a" d="M16.921,25.162A5.009,5.009,0,0,1,12.2,20.031,4.875,4.875,0,0,1,16.921,14.9a4.875,4.875,0,0,1,4.721,5.131A5.009,5.009,0,0,1,16.921,25.162Zm0-8.21a2.96,2.96,0,0,0-2.668,3.079,2.96,2.96,0,0,0,2.668,3.079,2.96,2.96,0,0,0,2.668-3.079A2.96,2.96,0,0,0,16.921,16.952Z" transform="translate(-12.2 -14.9)"/></g><g transform="translate(9.031 7.799)"><path class="a" d="M15.4,18.7h.41a5,5,0,0,1,4.926,4.926,1.026,1.026,0,0,1-2.052,0,2.806,2.806,0,0,0-2.873-2.873H15.4V18.7Z" transform="translate(-15.4 -18.7)"/></g><g transform="translate(0 7.799)"><path class="a" d="M16.336,20.752h-.41a2.806,2.806,0,0,0-2.873,2.873v3.489a1.026,1.026,0,1,1-2.052,0V23.626A5,5,0,0,1,15.926,18.7h.411Z" transform="translate(-11 -18.7)"/></g></g></g></svg>