<svg xmlns="http://www.w3.org/2000/svg" width="35.445" height="35.445" viewBox="0 0 35.445 35.445"><defs><style>.a{fill:#fff;stroke:#fff;stroke-width:0.5px;}</style></defs><g transform="translate(0.25 0.25)"><path class="a" d="M88.048,412a2.048,2.048,0,1,0,2.048,2.048A2.05,2.05,0,0,0,88.048,412Zm0,2.73a.683.683,0,1,1,.683-.683A.683.683,0,0,1,88.048,414.73Zm0,0" transform="translate(-80.13 -383.88)"/><path class="a" d="M32.9,28.12H31.805V13.377a.682.682,0,0,0-.683-.683H27.71V3.413a.682.682,0,0,0-.683-.683H13.377a.682.682,0,0,0-.683.683V28.12h-.46a4.749,4.749,0,0,0-2.27-2.27V2.048A2.05,2.05,0,0,0,7.917,0H2.048a2.048,2.048,0,0,0,0,4.1H5.87V25.85a4.778,4.778,0,1,0,6.365,6.365H32.9a2.048,2.048,0,0,0,0-4.1Zm-2.457,0H14.06V14.06h4.778v7.235a.682.682,0,0,0,1.092.546L22.25,20.1l2.321,1.74a.682.682,0,0,0,1.092-.546V14.06H30.44ZM20.2,14.06h4.1v5.87L22.66,18.7a.683.683,0,0,0-.819,0L20.2,19.93ZM18.837,4.1h2.73V8.007l-.986-.657a.682.682,0,0,0-.757,0l-.986.657Zm-1.365,0V9.282a.683.683,0,0,0,1.061.568L20.2,8.738,21.871,9.85a.683.683,0,0,0,1.061-.568V4.1h3.413v8.6H14.06V4.1ZM2.048,2.73a.683.683,0,1,1,0-1.365h5.87a.683.683,0,0,1,.683.683V25.439a4.747,4.747,0,0,0-1.365,0V3.413a.682.682,0,0,0-.683-.683Zm5.87,30.85a3.413,3.413,0,1,1,3.413-3.413A3.416,3.416,0,0,1,7.917,33.58ZM32.9,30.85H12.646a4.747,4.747,0,0,0,0-1.365H32.9a.683.683,0,0,1,0,1.365Zm0,0"/><path class="a" d="M406.683,354.73a.682.682,0,0,0,.683-.683v-1.365a.683.683,0,1,0-1.365,0v1.365A.682.682,0,0,0,406.683,354.73Zm0,0" transform="translate(-378.29 -327.975)"/><path class="a" d="M406.683,312a.683.683,0,1,1-.682.683A.683.683,0,0,1,406.683,312Zm0,0" transform="translate(-378.29 -290.705)"/><path class="a" d="M366.683,352a.682.682,0,0,0-.683.683v1.365a.683.683,0,1,0,1.365,0v-1.365A.682.682,0,0,0,366.683,352Zm0,0" transform="translate(-341.02 -327.975)"/></g></svg>