<svg xmlns="http://www.w3.org/2000/svg" width="66.143" height="57.698" viewBox="0 0 66.143 57.698"><defs><style>.a{fill:#fa6332;}</style></defs><g transform="translate(-11.569 -12.8)"><g transform="translate(11.569 12.8)"><path class="a" d="M68.219,52.565H63.931a1.949,1.949,0,0,1,0-3.9h4.288a6.26,6.26,0,0,0,4.288-1.949,4.86,4.86,0,0,0,1.17-4.678A5.9,5.9,0,0,0,69,37.75l-2.339-.39a4.771,4.771,0,0,1-3.9-5.458l.39-2.729V27.614a10.885,10.885,0,0,0-3.119-7.8,11.59,11.59,0,0,0-7.8-3.119,10.512,10.512,0,0,0-9.356,6.627l-.78,1.559a4.467,4.467,0,0,1-5.068,2.729l-1.949-.39a8.432,8.432,0,0,0-8.577,5.458l-.39,1.559c-.78,1.949-1.949,3.119-3.9,3.119l-1.949.39a5.635,5.635,0,0,0-3.9,2.729c-.78,1.559-1.17,3.119-.39,4.678a6.113,6.113,0,0,0,5.458,3.509h3.9a1.842,1.842,0,0,1,1.949,1.949,2.183,2.183,0,0,1-2.339,1.949h-3.9c-4.288,0-7.8-2.339-8.967-6.238-.78-2.729-.78-5.458.78-7.8a9.568,9.568,0,0,1,6.627-4.288l1.949-.39a.838.838,0,0,0,.78-.78l.39-1.559a12.2,12.2,0,0,1,11.306-8.187h1.17l1.949.39a1.432,1.432,0,0,0,1.17-.39l.78-1.559A15.636,15.636,0,0,1,51.846,12.8a16.341,16.341,0,0,1,10.916,3.9A15.454,15.454,0,0,1,67.44,27.224a4.944,4.944,0,0,1-.39,2.339l-.39,2.729c0,.39.39,1.17.78,1.17l2.339.39a9.415,9.415,0,0,1-1.559,18.713Z" transform="translate(-11.569 -12.8)"/><g transform="translate(24.878 34.307)"><g transform="translate(0 0.195)"><path class="a" d="M31.79,31.2a2.344,2.344,0,0,1-1.559-.39l-4.288-4.678-4.678,4.678a1.93,1.93,0,0,1-2.729-2.729l5.848-5.848a1.884,1.884,0,0,1,2.729,0l5.848,5.848a1.884,1.884,0,0,1,0,2.729A1.708,1.708,0,0,1,31.79,31.2Z" transform="translate(-17.95 -21.65)"/></g><g transform="translate(6.043)"><path class="a" d="M21.449,44.991A1.842,1.842,0,0,1,19.5,43.042V23.549A1.842,1.842,0,0,1,21.449,21.6,1.842,1.842,0,0,1,23.4,23.549V43.042A2.088,2.088,0,0,1,21.449,44.991Z" transform="translate(-19.5 -21.6)"/></g></g></g></g></svg>