<svg xmlns="http://www.w3.org/2000/svg" width="76.797" height="60.314" viewBox="0 0 76.797 60.314"><defs><style>.a{fill:#ffb237;stroke:#ffb237;}</style></defs><g transform="translate(0.5 -22.329)"><path class="a" d="M44.144,94.875a14.714,14.714,0,1,0-29.428,0c0,.365.024.756.059,1.164H0v7.729H7.213a5.324,5.324,0,0,0,1.259,5.114l.55.548.429-.648c1.056-1.59,3.37-4.162,4.673-3.89.256.352.535.707.831,1.056.452,4.8,2.007,12.586,7.331,12.586h.776l-.153-.763c-.239-1.177-.657-4.51.267-5.77a1.023,1.023,0,0,1,.494-.38l.225.191c1.892,1.623,7.651,6.565,12.041,6.565a4.344,4.344,0,0,0,2.913-1.012l.591-.5-.613-.477c-.981-.764-3.537-3.089-3.574-4.64a.969.969,0,0,1,.215-.654c.3.014.827.031,1.5.031,4.635,0,12.5-.763,13.1-5.866l.089-.773-.774.066c-.012,0-.531.044-1.269.044a8.177,8.177,0,0,1-4.251-.825H75.8V96.038H44.085C44.119,95.631,44.144,95.24,44.144,94.875Zm-28.158,0a13.444,13.444,0,1,1,26.888,0c0,.363-.02.743-.059,1.164H33.821c.006-.022.008-.045.014-.067s.013-.069.022-.1a4.3,4.3,0,0,0,.125-.993,4.552,4.552,0,1,0-9.1,0,4.293,4.293,0,0,0,.125.993c.008.035.012.069.022.1s.008.045.014.067H16.045C16.006,95.618,15.986,95.237,15.986,94.875ZM26.4,96.039c-.036-.088-.076-.178-.1-.268-.022-.07-.046-.138-.063-.208a3.021,3.021,0,0,1-.087-.687,3.281,3.281,0,1,1,6.562,0,3.016,3.016,0,0,1-.087.687c-.017.07-.041.139-.063.208-.027.089-.068.18-.1.268ZM8.886,107.384a4.544,4.544,0,0,1-.378-3.616H13C11.329,104.345,9.692,106.3,8.886,107.384Zm33.439-3.438c.873,1.584,3.63,1.918,5.79,1.918.185,0,.36,0,.518-.008-1.291,3.588-8.481,3.995-11.664,3.995-1.033,0-1.7-.041-1.709-.042L35,109.791l-.2.169a2.248,2.248,0,0,0-.822,1.816c.045,1.883,2.22,4.032,3.384,5.049a3.4,3.4,0,0,1-1.432.285c-2.6,0-6.374-2.105-11.214-6.257-.512-.44-.554-.476-.718-.521l-.116-.032-.121.012a2.257,2.257,0,0,0-1.616.943c-1.1,1.5-.846,4.451-.631,5.928-3.925-.856-5.023-8.257-5.318-11.549l-.019-.2-.133-.155c-.357-.412-.7-.841-1.011-1.288l-.107-.153-.162-.066h2.958c.154.2.329.382.492.573.175.208.344.422.53.618.21.221.435.422.656.629.2.185.388.376.593.55.232.194.479.365.721.545.216.16.424.328.647.475.254.167.521.308.784.459.229.132.452.273.688.393.278.14.566.252.852.376.236.1.465.215.707.3.307.113.624.194.939.288.231.069.456.15.689.207.36.086.727.138,1.093.2.2.031.391.081.591.1a14.46,14.46,0,0,0,3.445,0c.2-.023.393-.073.591-.1.366-.061.734-.113,1.093-.2.234-.057.46-.138.69-.207.315-.092.631-.175.939-.288.24-.088.47-.2.707-.3.286-.124.576-.236.852-.376.236-.12.458-.261.688-.393.263-.152.53-.292.784-.459.223-.146.432-.315.648-.475.243-.18.489-.35.722-.545.207-.174.4-.365.594-.55.221-.207.447-.408.655-.629.186-.2.355-.409.53-.618.164-.191.339-.372.493-.573h1.092Zm-2.948-.061c-.133.145-.277.283-.417.423-.217.219-.435.437-.667.639-.157.138-.319.265-.48.4-.232.185-.467.367-.709.536-.173.122-.349.236-.527.346q-.371.235-.757.446c-.183.1-.369.2-.559.29-.265.129-.536.246-.81.357-.19.077-.381.156-.576.224-.29.1-.583.187-.878.269-.187.053-.373.112-.563.157-.33.077-.662.129-1,.181-.162.026-.324.062-.489.081a12.587,12.587,0,0,1-3.033,0c-.165-.019-.327-.054-.489-.081-.335-.052-.668-.1-1-.181-.19-.045-.377-.1-.563-.157-.294-.082-.589-.166-.878-.269-.194-.068-.385-.148-.576-.224-.273-.112-.544-.228-.81-.357-.189-.092-.374-.189-.559-.29-.258-.139-.51-.289-.757-.446-.178-.112-.354-.226-.527-.346-.243-.169-.477-.35-.709-.536-.161-.13-.325-.258-.48-.4-.231-.2-.45-.419-.667-.639-.14-.14-.283-.278-.417-.423-.034-.037-.063-.081-.1-.118H39.477C39.441,103.807,39.412,103.848,39.378,103.885ZM74.526,102.5H1.27V97.309H74.526Z" transform="translate(0 -36.389)"/><path class="a" d="M58.543,48.188c.03.179.108.652,3.162,4.2l.7.818.374-1.012c.1-.27,2.437-6.7,1.657-12.9l-.037-.269c-.442-3.136-2.144-5.713-3.646-7.985-1.549-2.345-3.011-4.559-2.86-6.971l.062-.99L36.668,31.345a27.678,27.678,0,0,0-3.7-.274,27.226,27.226,0,0,0-13.549,3.612,2.993,2.993,0,0,0-.707-2.816c-1.182-1.184-3.45-.984-4.856.421a3.476,3.476,0,0,0-.421,4.856,2.763,2.763,0,0,0,1.481.76A27.339,27.339,0,0,0,5.551,58.488v.635h9.527v-.635a17.89,17.89,0,1,1,35.78,0v.635h9.527v-.635a27.371,27.371,0,0,0-14.1-23.966l5.963-3.669c.836,2.224,3.5,8.7,6.828,10.571C58.825,43.933,58.466,47.728,58.543,48.188ZM14.756,33.183a2.776,2.776,0,0,1,1.913-.86,1.6,1.6,0,0,1,1.147.439,2.231,2.231,0,0,1-.421,3.06,2.771,2.771,0,0,1-1.912.861,1.594,1.594,0,0,1-1.147-.44A2.228,2.228,0,0,1,14.756,33.183ZM59.109,57.85h-6.99a19.161,19.161,0,0,0-38.3,0H6.829A26.175,26.175,0,0,1,37.572,32.741c.715.127,1.416.289,2.109.469l5,1.9A26.1,26.1,0,0,1,59.109,57.85ZM53.181,29.7l-.258-.751-7.943,4.886A27.19,27.19,0,0,0,40.062,32l-.795-.3,17.369-6.746c.182,2.424,1.585,4.55,3.061,6.786C61.2,34,62.743,36.349,63.145,39.2l.035.25A29.343,29.343,0,0,1,61.933,50.7C60.888,49.449,59.9,48.215,59.8,48c-.03-.406.278-3.854.584-6.89l.047-.46L60,40.468C56.364,38.884,53.213,29.787,53.181,29.7Z" transform="translate(-3.539)"/></g></svg>