<svg xmlns="http://www.w3.org/2000/svg" width="46.166" height="63.223" viewBox="0 0 46.166 63.223"><defs><style>.a{fill:#fff;}</style></defs><path class="a" d="M167.806,116.781l-.109-40.1s-1.587-12.314-14.872-19.3c-10.358-5.435-29.321-3.481-31.185-3.481v62.881H136.9a4.587,4.587,0,0,0,.135-2.565,16.924,16.924,0,0,1-.366-7.326c.158-.931.794-2.581,1.72-2.767,3.163-.641,5.558-1.525,6.278-3.757-2.521.983-5.715,1.829-8.344,1.2a5.653,5.653,0,0,1-3.758-3.744,6.587,6.587,0,0,1,.008-3.038l.975-6.11c.135-.848.649-2.21,1.506-2.268a3.187,3.187,0,0,0,2.391-.945c.96-.811,3.8-.373,4.528.652a2.435,2.435,0,1,0,.2-3.064c-.791.853-3.035.385-4.667-.227a2.576,2.576,0,0,0-1.861-1.1,1.1,1.1,0,0,1,.008-.423l.641-4.134c.219-1.411,2.213-1.539,3.592-1.163s3.207.723,3.933-.5c-.24-.1-1.115-.012-2.007-.207a9.67,9.67,0,0,1-3.885-2.132,9.4,9.4,0,0,1-2.518-4.478,17.944,17.944,0,0,1,.6-9.531,9.473,9.473,0,0,0,2.12,5.824,16.038,16.038,0,0,0,2.871,2.6,54.835,54.835,0,0,0,10.318,6.1c3.108,1.4,4.151,5.281,4.361,8.684a18.378,18.378,0,0,1,0,2.658,24.086,24.086,0,0,1-1.3,5.388,40.555,40.555,0,0,1-2.9,7.274c-1.188,2.131-2.771,4.066-3.557,6.375-1.411,4.137-.028,8.656,1.584,12.73Z" transform="translate(-121.64 -53.566)"/></svg>